<svg version="1" xmlns="http://www.w3.org/2000/svg" width="1530.667" height="1530.667" viewBox="0 0 1148.000000 1148.000000"><path d="M286.6 287C128.8 444.6-.1 574.1.1 574.7c.7 2.1 573.7 573.3 575.1 573.3.7 0 129.9-128.6 287.1-285.8C1090.2 634.3 1148 576 1148 574s-57.8-60.3-285.8-288.3C705 128.5 575.8.1 575 .2c-.8.1-130.6 129.2-288.4 286.8zm315.4 0c75.6 6.7 148.7 46.2 197.1 106.7 37.8 47.3 58.9 101 63 160.6 3.5 52-6.5 102.2-29.7 148.7-28.7 57.2-73.2 101.5-130.9 130-45.9 22.8-95.7 32.6-147.2 29.1-94.2-6.4-178.2-58.1-227.7-140-21.7-35.9-36-79.1-39.6-120.1-6-68.5 10.4-132.6 48.6-189.5 4-6.1 9.4-13.5 11.9-16.5s7-8.4 9.9-12c6.3-7.7 21.9-22.8 33-32 42.7-35.6 100-59.7 154.7-64.9 12.3-1.2 43.7-1.2 56.9-.1z"/><path d="M401 574v173h346V401H401v173z"/></svg>